<svg xmlns="http://www.w3.org/2000/svg" width="130" height="130" fill="none"><circle cx="64.885" cy="64.885" r="64.885" fill="url(#paint0_linear)"/><path fill="#fff" fill-rule="evenodd" d="M120 65c0 30.376-24.624 55-55 55S10 95.376 10 65s24.624-55 55-55 55 24.624 55 55zm-55.429 9.557c-3.157 0-5.571-2.414-5.571-5.571V40.57C59 37.414 61.414 35 64.571 35c3.158 0 5.572 2.414 5.572 5.571v28.415c0 3.157-2.414 5.571-5.572 5.571zm-3.9 18.758c.929 1.114 2.415 1.671 3.9 1.671 1.486 0 2.972-.557 4.272-1.671 1.114-.929 1.671-2.415 1.671-3.9 0-.186-.046-.372-.093-.557a2.332 2.332 0 01-.092-.558c-.093-.185-.14-.37-.186-.557a2.62 2.62 0 00-.186-.557 4.075 4.075 0 00-.278-.464c-.093-.14-.186-.279-.279-.464-.186-.372-.557-.743-.743-.929-2.043-2.043-5.757-2.043-7.8 0-.371.371-.557.557-.743.929a4.079 4.079 0 01-.278.464 4.09 4.09 0 00-.279.464c-.186.372-.371.743-.371 1.114-.186.372-.186.743-.186 1.115 0 1.485.557 2.785 1.671 3.9z" clip-rule="evenodd"/><defs><linearGradient id="paint0_linear" x1="-221.616" x2="206.678" y1="-22.882" y2="53.379" gradientUnits="userSpaceOnUse"><stop stop-color="#6930C3"/><stop offset=".396" stop-color="#6844C6"/><stop offset="1" stop-color="#63DFDF"/></linearGradient></defs></svg>