<svg width="31" height="30" viewBox="0 0 31 30" fill="none" xmlns="http://www.w3.org/2000/svg">
<path fill-rule="evenodd" clip-rule="evenodd" d="M3.71509 0.638384C2.86521 -0.211493 1.48729 -0.211493 0.637408 0.638385C-0.212469 1.48826 -0.21247 2.86619 0.637408 3.71606L11.9234 15.002L0.6397 26.2857C-0.210177 27.1356 -0.210176 28.5135 0.639701 29.3634C1.48958 30.2133 2.8675 30.2133 3.71738 29.3634L15.0011 18.0797L26.2847 29.3634C27.1346 30.2133 28.5125 30.2133 29.3624 29.3634C30.2123 28.5135 30.2123 27.1356 29.3624 26.2857L18.0787 15.002L29.3647 3.71606C30.2146 2.86619 30.2146 1.48826 29.3647 0.638385C28.5148 -0.211493 27.1369 -0.211493 26.287 0.638384L15.0011 11.9244L3.71509 0.638384Z" fill="black"/>
</svg>
