<svg width="46" height="46" viewBox="0 0 46 46" fill="none" xmlns="http://www.w3.org/2000/svg">
<path d="M23.0001 28.5495C23.5709 28.5495 24.1183 28.3228 24.5218 27.9192C24.9254 27.5157 25.1521 26.9683 25.1521 26.3975V11.6227C25.1521 11.052 24.9254 10.5046 24.5218 10.101C24.1183 9.69743 23.5709 9.4707 23.0001 9.4707C22.4294 9.4707 21.882 9.69743 21.4785 10.101C21.0749 10.5046 20.8481 11.052 20.8481 11.6227V26.3975C20.8481 26.6801 20.9038 26.96 21.012 27.2211C21.1201 27.4822 21.2786 27.7194 21.4784 27.9192C21.6783 28.1191 21.9155 28.2776 22.1766 28.3857C22.4377 28.4939 22.7175 28.5495 23.0001 28.5495Z" fill="#FF5454"/>
<path d="M23.0004 32.2256C22.5748 32.2256 22.1587 32.3518 21.8048 32.5883C21.4509 32.8247 21.1751 33.1608 21.0122 33.5541C20.8493 33.9473 20.8067 34.38 20.8897 34.7974C20.9728 35.2149 21.1777 35.5983 21.4787 35.8993C21.7797 36.2002 22.1631 36.4052 22.5806 36.4882C22.998 36.5713 23.4307 36.5287 23.8239 36.3658C24.2172 36.2029 24.5532 35.9271 24.7897 35.5732C25.0262 35.2193 25.1524 34.8032 25.1524 34.3776C25.1524 33.8068 24.9257 33.2595 24.5221 32.8559C24.1185 32.4523 23.5711 32.2256 23.0004 32.2256Z" fill="#FF5454"/>
<path d="M23 45.5C27.4501 45.5 31.8002 44.1804 35.5003 41.7081C39.2004 39.2357 42.0843 35.7217 43.7873 31.6104C45.4903 27.4991 45.9358 22.975 45.0677 18.6105C44.1995 14.2459 42.0566 10.2368 38.9099 7.09011C35.7632 3.94343 31.7541 1.80051 27.3895 0.932341C23.025 0.0641738 18.501 0.509749 14.3896 2.21272C10.2783 3.91569 6.76427 6.79957 4.29193 10.4997C1.8196 14.1998 0.5 18.5499 0.5 23C0.506678 28.9653 2.87935 34.6844 7.09747 38.9025C11.3156 43.1207 17.0347 45.4933 23 45.5ZM23 4.00001C26.7578 4.00001 30.4313 5.11434 33.5558 7.20209C36.6804 9.28983 39.1156 12.2572 40.5537 15.729C41.9918 19.2008 42.368 23.0211 41.6349 26.7067C40.9018 30.3924 39.0922 33.7778 36.435 36.435C33.7778 39.0922 30.3924 40.9018 26.7067 41.6349C23.0211 42.3681 19.2008 41.9918 15.729 40.5537C12.2572 39.1157 9.28982 36.6804 7.20208 33.5558C5.11433 30.4313 4 26.7579 4 23C4.00572 17.9627 6.00934 13.1333 9.57129 9.5713C13.1332 6.00935 17.9626 4.00573 23 4.00001Z" fill="#FF5454"/>
</svg>
