<svg width="45" height="45" viewBox="0 0 45 45" fill="none" xmlns="http://www.w3.org/2000/svg">
<path d="M22.5001 28.0495C23.0709 28.0495 23.6183 27.8228 24.0218 27.4192C24.4254 27.0157 24.6521 26.4683 24.6521 25.8975V11.1227C24.6521 10.552 24.4254 10.0046 24.0218 9.60101C23.6183 9.19743 23.0709 8.9707 22.5001 8.9707C21.9294 8.9707 21.382 9.19743 20.9785 9.60101C20.5749 10.0046 20.3481 10.552 20.3481 11.1227V25.8975C20.3481 26.1801 20.4038 26.46 20.512 26.7211C20.6201 26.9822 20.7786 27.2194 20.9784 27.4192C21.1783 27.6191 21.4155 27.7776 21.6766 27.8857C21.9377 27.9939 22.2175 28.0495 22.5001 28.0495V28.0495Z" fill="#FF5454"/>
<path d="M22.5004 31.7256C22.0748 31.7256 21.6587 31.8518 21.3048 32.0883C20.9509 32.3247 20.6751 32.6608 20.5122 33.0541C20.3493 33.4473 20.3067 33.88 20.3897 34.2974C20.4728 34.7149 20.6777 35.0983 20.9787 35.3993C21.2797 35.7002 21.6631 35.9052 22.0806 35.9882C22.498 36.0713 22.9307 36.0287 23.3239 35.8658C23.7172 35.7029 24.0532 35.4271 24.2897 35.0732C24.5262 34.7193 24.6524 34.3032 24.6524 33.8776C24.6524 33.3068 24.4257 32.7595 24.0221 32.3559C23.6185 31.9523 23.0711 31.7256 22.5004 31.7256V31.7256Z" fill="#FF5454"/>
<path d="M22.5 45C26.9501 45 31.3002 43.6804 35.0003 41.2081C38.7004 38.7357 41.5843 35.2217 43.2873 31.1104C44.9903 26.9991 45.4358 22.475 44.5677 18.1105C43.6995 13.7459 41.5566 9.73679 38.4099 6.59011C35.2632 3.44343 31.2541 1.30051 26.8895 0.432341C22.525 -0.435826 18.001 0.00974894 13.8896 1.71272C9.77829 3.41569 6.26427 6.29957 3.79193 9.99968C1.3196 13.6998 0 18.0499 0 22.5C0.00667789 28.4653 2.37935 34.1844 6.59747 38.4025C10.8156 42.6207 16.5347 44.9933 22.5 45V45ZM22.5 3.50001C26.2578 3.50001 29.9313 4.61434 33.0558 6.70209C36.1804 8.78983 38.6156 11.7572 40.0537 15.229C41.4918 18.7008 41.868 22.5211 41.1349 26.2067C40.4018 29.8924 38.5922 33.2778 35.935 35.935C33.2778 38.5922 29.8924 40.4018 26.2067 41.1349C22.5211 41.8681 18.7008 41.4918 15.229 40.0537C11.7572 38.6157 8.78982 36.1804 6.70208 33.0558C4.61433 29.9313 3.5 26.2579 3.5 22.5C3.50572 17.4627 5.50934 12.6333 9.07129 9.0713C12.6332 5.50935 17.4626 3.50573 22.5 3.50001V3.50001Z" fill="#FF5454"/>
</svg>
